<svg width="149" height="60" viewBox="0 0 149 60" fill="none" xmlns="http://www.w3.org/2000/svg">
<path d="M24.392 33.36H25.28C25.392 34.08 25.6 34.728 25.904 35.304C26.224 35.88 26.616 36.368 27.08 36.768C27.56 37.168 28.104 37.48 28.712 37.704C29.336 37.912 30.008 38.016 30.728 38.016C31.912 38.016 32.848 37.736 33.536 37.176C34.224 36.616 34.568 35.856 34.568 34.896C34.568 34.496 34.496 34.128 34.352 33.792C34.224 33.456 34 33.136 33.68 32.832C33.36 32.512 32.928 32.2 32.384 31.896C31.856 31.592 31.184 31.264 30.368 30.912C29.376 30.48 28.544 30.064 27.872 29.664C27.2 29.264 26.664 28.848 26.264 28.416C25.864 27.984 25.576 27.528 25.4 27.048C25.24 26.552 25.16 25.992 25.16 25.368C25.16 24.632 25.288 23.952 25.544 23.328C25.816 22.704 26.192 22.168 26.672 21.72C27.152 21.256 27.72 20.904 28.376 20.664C29.032 20.408 29.752 20.28 30.536 20.28C31.24 20.28 31.896 20.392 32.504 20.616C33.112 20.84 33.728 21.2 34.352 21.696L34.976 20.616H35.528L35.792 25.392H34.904C34.52 24.08 33.96 23.104 33.224 22.464C32.504 21.824 31.632 21.504 30.608 21.504C29.632 21.504 28.856 21.744 28.28 22.224C27.704 22.704 27.416 23.352 27.416 24.168C27.416 24.552 27.48 24.904 27.608 25.224C27.736 25.528 27.944 25.824 28.232 26.112C28.52 26.384 28.896 26.664 29.36 26.952C29.824 27.224 30.4 27.512 31.088 27.816C32.272 28.344 33.256 28.84 34.04 29.304C34.824 29.752 35.448 30.208 35.912 30.672C36.376 31.12 36.704 31.6 36.896 32.112C37.088 32.608 37.184 33.168 37.184 33.792C37.184 34.592 37.024 35.328 36.704 36C36.384 36.672 35.936 37.248 35.36 37.728C34.784 38.208 34.096 38.584 33.296 38.856C32.496 39.112 31.616 39.24 30.656 39.24C29.744 39.24 28.92 39.112 28.184 38.856C27.464 38.6 26.728 38.168 25.976 37.56L25.304 38.736H24.752L24.392 33.36Z" fill="#7900FF"/>
<path d="M20.3866 15.8779L14.2998 9.79129L20.1967 3.896C22.6966 1.40113 26.0843 0 29.6161 0C33.148 0 36.5356 1.40113 39.0354 3.896L44.9332 9.79129L38.8457 15.8779L32.948 9.98031C32.0635 9.09823 30.8653 8.60295 29.6161 8.60295C28.367 8.60295 27.1687 9.09823 26.2843 9.98031L20.3866 15.8779Z" fill="#36B37E"/>
<path d="M50.2089 45.6985L44.1221 39.6113L50.0183 33.716C50.9011 32.8315 51.3969 31.6328 51.3969 30.3831C51.3969 29.1334 50.9011 27.9348 50.0183 27.0502L44.1221 21.1542L50.2089 15.0669L56.1042 20.9629C58.5989 23.4632 60 26.8509 60 30.3828C60 33.9147 58.5989 37.3023 56.1042 39.8025L50.2089 45.6985Z" fill="#7540EE"/>
<path d="M20.9641 56.1049L15.0664 50.2075L21.1539 44.1208L27.0509 50.0177C27.9351 50.9006 29.1336 51.3964 30.3831 51.3964C31.6326 51.3964 32.8311 50.9006 33.7153 50.0177L39.613 44.1208L45.7005 50.2075L39.8029 56.1049C37.3027 58.5993 33.9152 60 30.3835 60C26.8518 60 23.4642 58.5993 20.9641 56.1049Z" fill="#FFAB00"/>
<path d="M9.79077 44.9317L3.8953 39.0358C1.40085 36.5355 0 33.148 0 29.6163C0 26.0846 1.40085 22.697 3.8953 20.1968L9.79077 14.3008L15.8775 20.3881L9.98208 26.2834C9.09929 27.168 8.60348 28.3666 8.60348 29.6163C8.60348 30.866 9.09929 32.0646 9.98208 32.9492L15.8775 38.8444L9.79077 44.9317Z" fill="#5B7FFF"/>
<path d="M76.074 29.3039C75.086 29.6852 74.2453 30.0579 73.552 30.4219C72.876 30.7859 72.33 31.1499 71.914 31.5139C71.498 31.8779 71.1947 32.2419 71.004 32.6059C70.8307 32.9699 70.744 33.3426 70.744 33.7239C70.744 34.2959 70.9347 34.7639 71.316 35.1279C71.6973 35.4919 72.2 35.6739 72.824 35.6739C73.2747 35.6739 73.6907 35.5612 74.072 35.3359C74.4707 35.1106 74.8173 34.8072 75.112 34.4259C75.4067 34.0272 75.6407 33.5679 75.814 33.0479C75.9873 32.5106 76.074 31.9472 76.074 31.3579V29.3039ZM76.074 28.1859V27.1199C76.074 25.0052 75.1727 23.9479 73.37 23.9479C73.0753 23.9479 72.824 23.9739 72.616 24.0259C72.408 24.0779 72.2347 24.1646 72.096 24.2859C71.9573 24.4072 71.8273 24.5806 71.706 24.8059C71.602 25.0312 71.498 25.3086 71.394 25.6379C71.2033 26.1406 71.0127 26.4786 70.822 26.6519C70.6487 26.8079 70.3887 26.8859 70.042 26.8859C69.1753 26.8859 68.742 26.4526 68.742 25.5859C68.742 24.7539 69.184 24.1126 70.068 23.6619C70.952 23.1939 72.2087 22.9599 73.838 22.9599C75.5713 22.9599 76.802 23.2719 77.53 23.8959C78.258 24.5026 78.622 25.5426 78.622 27.0159V32.8399C78.622 34.8159 79.012 35.8039 79.792 35.8039C80.0347 35.8039 80.2687 35.7779 80.494 35.7259C80.7193 35.6566 80.91 35.4919 81.066 35.2319L81.43 35.8559C81.222 36.2546 80.8407 36.5926 80.286 36.8699C79.7313 37.1299 79.1507 37.2599 78.544 37.2599C77.7813 37.2599 77.2093 37.0172 76.828 36.5319C76.464 36.0466 76.282 35.3619 76.282 34.4779H76.152C75.7013 35.3272 75.0773 36.0032 74.28 36.5059C73.4827 36.9912 72.5987 37.2339 71.628 37.2339C70.536 37.2339 69.678 36.9566 69.054 36.4019C68.43 35.8472 68.118 35.1019 68.118 34.1659C68.118 33.7499 68.1873 33.3512 68.326 32.9699C68.482 32.5886 68.7247 32.2246 69.054 31.8779C69.3833 31.5312 69.8167 31.1932 70.354 30.8639C70.8913 30.5172 71.55 30.1706 72.33 29.8239L76.074 28.1859ZM81.9685 23.6359H84.9065V21.7639C84.9065 19.7706 85.4265 18.2192 86.4665 17.1099C87.5238 15.9832 89.0232 15.4199 90.9645 15.4199C92.0392 15.4199 92.9145 15.5846 93.5905 15.9139C94.2665 16.2432 94.6045 16.6679 94.6045 17.1879C94.6045 17.5346 94.4918 17.8292 94.2665 18.0719C94.0585 18.2972 93.7898 18.4099 93.4605 18.4099C93.2525 18.4099 93.0272 18.3492 92.7845 18.2279C92.5592 18.0892 92.2558 17.8639 91.8745 17.5519C91.4412 17.1879 91.1032 16.9539 90.8605 16.8499C90.6178 16.7286 90.3318 16.6679 90.0025 16.6679C88.9625 16.6679 88.2172 17.1966 87.7665 18.2539C87.6105 18.6006 87.4978 19.0252 87.4285 19.5279C87.3765 20.0306 87.3505 20.7239 87.3505 21.6079V23.6359H91.5365V24.8579H87.3505V32.8139C87.3505 33.4552 87.3852 33.9839 87.4545 34.3999C87.5412 34.8159 87.6798 35.1539 87.8705 35.4139C88.0785 35.6566 88.3558 35.8299 88.7025 35.9339C89.0492 36.0206 89.4998 36.0726 90.0545 36.0899V36.9999H82.6705V36.0899C83.1558 36.0726 83.5458 36.0292 83.8405 35.9599C84.1352 35.8732 84.3605 35.7259 84.5165 35.5179C84.6725 35.2926 84.7765 34.9892 84.8285 34.6079C84.8805 34.2092 84.9065 33.6806 84.9065 33.0219V24.8579H81.9685V23.6359ZM97.5713 25.0919H97.6753C98.23 24.4332 98.828 23.9132 99.4693 23.5319C100.111 23.1506 100.856 22.9599 101.705 22.9599C102.693 22.9599 103.595 23.1419 104.409 23.5059C105.241 23.8526 105.961 24.3466 106.567 24.9879C107.174 25.6292 107.642 26.3919 107.971 27.2759C108.318 28.1426 108.491 29.0959 108.491 30.1359C108.491 31.1932 108.318 32.1639 107.971 33.0479C107.625 33.9146 107.148 34.6599 106.541 35.2839C105.935 35.9079 105.215 36.3932 104.383 36.7399C103.551 37.0866 102.65 37.2599 101.679 37.2599C100.882 37.2599 100.154 37.1299 99.4953 36.8699C98.854 36.5926 98.2473 36.1506 97.6753 35.5439V39.3399C97.6753 40.0332 97.71 40.5879 97.7793 41.0039C97.8487 41.4199 97.9873 41.7406 98.1953 41.9659C98.4033 42.1912 98.698 42.3472 99.0793 42.4339C99.478 42.5206 99.998 42.5726 100.639 42.5899V43.4999H92.6313V42.5899C93.1513 42.5726 93.5673 42.5206 93.8793 42.4339C94.2087 42.3472 94.46 42.1912 94.6333 41.9659C94.824 41.7406 94.954 41.4286 95.0233 41.0299C95.0927 40.6486 95.1273 40.1459 95.1273 39.5219V29.7979C95.1273 28.7926 95.11 27.9692 95.0753 27.3279C95.058 26.6866 95.0147 26.2446 94.9453 26.0019C94.8587 25.5859 94.6593 25.3086 94.3473 25.1699C94.0353 25.0139 93.446 24.9359 92.5793 24.9359V24.0519L97.5713 23.0639V25.0919ZM98.3513 25.8459C98.126 26.1926 97.9527 26.6086 97.8313 27.0939C97.7273 27.5619 97.6753 28.1772 97.6753 28.9399V30.9679C97.6753 31.4359 97.684 31.8432 97.7013 32.1899C97.736 32.5192 97.7793 32.8052 97.8313 33.0479C97.8833 33.2906 97.9527 33.5072 98.0393 33.6979C98.126 33.8886 98.2387 34.0706 98.3773 34.2439C98.776 34.7986 99.2527 35.2319 99.8073 35.5439C100.362 35.8386 100.943 35.9859 101.549 35.9859C102.745 35.9859 103.707 35.4832 104.435 34.4779C105.181 33.4726 105.553 32.0599 105.553 30.2399C105.553 29.3386 105.449 28.5239 105.241 27.7959C105.051 27.0506 104.773 26.4179 104.409 25.8979C104.045 25.3606 103.603 24.9446 103.083 24.6499C102.581 24.3552 102.017 24.2079 101.393 24.2079C100.769 24.2079 100.189 24.3552 99.6513 24.6499C99.1313 24.9272 98.698 25.3259 98.3513 25.8459ZM118.832 29.3039C117.844 29.6852 117.003 30.0579 116.31 30.4219C115.634 30.7859 115.088 31.1499 114.672 31.5139C114.256 31.8779 113.952 32.2419 113.762 32.6059C113.588 32.9699 113.502 33.3426 113.502 33.7239C113.502 34.2959 113.692 34.7639 114.074 35.1279C114.455 35.4919 114.958 35.6739 115.582 35.6739C116.032 35.6739 116.448 35.5612 116.83 35.3359C117.228 35.1106 117.575 34.8072 117.87 34.4259C118.164 34.0272 118.398 33.5679 118.572 33.0479C118.745 32.5106 118.832 31.9472 118.832 31.3579V29.3039ZM118.832 28.1859V27.1199C118.832 25.0052 117.93 23.9479 116.128 23.9479C115.833 23.9479 115.582 23.9739 115.374 24.0259C115.166 24.0779 114.992 24.1646 114.854 24.2859C114.715 24.4072 114.585 24.5806 114.464 24.8059C114.36 25.0312 114.256 25.3086 114.152 25.6379C113.961 26.1406 113.77 26.4786 113.58 26.6519C113.406 26.8079 113.146 26.8859 112.8 26.8859C111.933 26.8859 111.5 26.4526 111.5 25.5859C111.5 24.7539 111.942 24.1126 112.826 23.6619C113.71 23.1939 114.966 22.9599 116.596 22.9599C118.329 22.9599 119.56 23.2719 120.288 23.8959C121.016 24.5026 121.38 25.5426 121.38 27.0159V32.8399C121.38 34.8159 121.77 35.8039 122.55 35.8039C122.792 35.8039 123.026 35.7779 123.252 35.7259C123.477 35.6566 123.668 35.4919 123.824 35.2319L124.188 35.8559C123.98 36.2546 123.598 36.5926 123.044 36.8699C122.489 37.1299 121.908 37.2599 121.302 37.2599C120.539 37.2599 119.967 37.0172 119.586 36.5319C119.222 36.0466 119.04 35.3619 119.04 34.4779H118.91C118.459 35.3272 117.835 36.0032 117.038 36.5059C116.24 36.9912 115.356 37.2339 114.386 37.2339C113.294 37.2339 112.436 36.9566 111.812 36.4019C111.188 35.8472 110.876 35.1019 110.876 34.1659C110.876 33.7499 110.945 33.3512 111.084 32.9699C111.24 32.5886 111.482 32.2246 111.812 31.8779C112.141 31.5312 112.574 31.1932 113.112 30.8639C113.649 30.5172 114.308 30.1706 115.088 29.8239L118.832 28.1859ZM130.902 41.0819C130.104 42.8672 128.865 43.7599 127.184 43.7599C126.092 43.7599 125.546 43.3526 125.546 42.5379C125.546 42.1046 125.693 41.7839 125.988 41.5759C126.3 41.3852 126.863 41.2206 127.678 41.0819C128.042 41.0299 128.354 40.9519 128.614 40.8479C128.874 40.7612 129.108 40.6399 129.316 40.4839C129.524 40.3452 129.706 40.1632 129.862 39.9379C130.035 39.7126 130.2 39.4352 130.356 39.1059L131.266 37.2859L126.274 26.4439C126.048 25.9586 125.849 25.5772 125.676 25.2999C125.52 25.0052 125.346 24.7799 125.156 24.6239C124.982 24.4506 124.783 24.3379 124.558 24.2859C124.332 24.2166 124.046 24.1646 123.7 24.1299V23.2199H130.59V24.1299C129.428 24.1299 128.848 24.4159 128.848 24.9879C128.848 25.2132 128.917 25.5686 129.056 26.0539C129.194 26.5392 129.368 27.0332 129.576 27.5359L132.436 34.4519H132.566L134.932 28.6019C135.157 28.0299 135.339 27.5619 135.478 27.1979C135.634 26.8339 135.746 26.5392 135.816 26.3139C135.902 26.0712 135.954 25.8719 135.972 25.7159C136.006 25.5599 136.024 25.4126 136.024 25.2739C136.024 24.8232 135.894 24.5199 135.634 24.3639C135.391 24.2079 134.914 24.1299 134.204 24.1299V23.2199H139.924V24.1299C139.594 24.1299 139.317 24.1732 139.092 24.2599C138.866 24.3466 138.632 24.5459 138.39 24.8579C138.164 25.1526 137.904 25.5859 137.61 26.1579C137.332 26.7299 136.986 27.5012 136.57 28.4719L130.902 41.0819Z" fill="black"/>
</svg>
